<?xml version="1.0" standalone="no"?>
<!DOCTYPE svg PUBLIC "-//W3C//DTD SVG 20010904//EN"
 "http://www.w3.org/TR/2001/REC-SVG-20010904/DTD/svg10.dtd">
<svg version="1.0" xmlns="http://www.w3.org/2000/svg"
 width="700.000000pt" height="700.000000pt" viewBox="0 0 700.000000 700.000000"
 preserveAspectRatio="xMidYMid meet">
<metadata>
Created by potrace 1.11, written by Peter Selinger 2001-2013
</metadata>
<g transform="translate(0.000000,700.000000) scale(0.100000,-0.100000)"
fill="#000000" stroke="none">
<path d="M3251 6989 c-826 -59 -1587 -399 -2180 -974 -512 -496 -856 -1120
-996 -1810 -53 -262 -69 -423 -69 -705 0 -551 109 -1032 344 -1518 180 -372
382 -655 679 -953 285 -284 560 -483 913 -660 974 -488 2142 -488 3116 0 702
352 1254 913 1596 1621 231 479 340 964 340 1510 0 579 -120 1077 -382 1595
-245 483 -618 917 -1072 1247 -265 192 -597 363 -925 475 -421 143 -909 205
-1364 172z m319 -354 l0 -125 -70 0 -70 0 0 125 0 125 70 0 70 0 0 -125z
m-751 -79 l28 -116 -37 -10 c-97 -26 -98 -26 -109 16 -38 147 -48 195 -41 199
11 7 124 33 128 29 2 -1 16 -55 31 -118z m1521 89 c7 -5 -43 -221 -53 -232 -6
-5 -109 16 -126 26 -9 6 -3 41 40 203 l9 36 61 -14 c34 -8 65 -16 69 -19z
m-2233 -340 c29 -55 52 -102 53 -105 0 -3 -27 -19 -60 -36 l-60 -32 -44 82
c-53 97 -71 135 -65 140 13 12 106 55 114 53 6 -2 33 -48 62 -102z m2908 78
c30 -15 55 -31 55 -37 0 -8 -96 -193 -106 -205 -5 -5 -124 50 -124 57 0 12
106 212 112 212 4 0 32 -12 63 -27z m-1120 -113 c409 -59 810 -211 1142 -433
174 -116 266 -190 416 -337 447 -434 722 -977 818 -1610 29 -192 32 -551 6
-740 -35 -249 -86 -451 -169 -664 -332 -852 -1066 -1494 -1953 -1706 -969
-233 -1971 60 -2668 780 -616 636 -893 1528 -746 2405 129 771 576 1451 1239
1885 370 241 829 399 1282 439 160 15 461 5 633 -19z m-2421 -375 c42 -47 76
-90 76 -95 0 -10 -87 -85 -99 -85 -4 0 -42 39 -85 87 l-78 88 48 45 c27 24 52
44 55 45 4 0 41 -38 83 -85z m4190 39 l48 -44 -78 -88 c-43 -48 -79 -89 -81
-91 -4 -6 -96 73 -100 86 -4 11 143 183 156 183 3 -1 28 -21 55 -46z m515
-583 l40 -59 -101 -70 -102 -71 -38 57 c-21 32 -34 60 -29 65 8 8 183 135 188
136 1 1 20 -26 42 -58z m-5218 -12 c49 -34 91 -65 94 -69 5 -9 -63 -110 -74
-110 -5 0 -52 29 -105 65 l-96 66 37 54 c20 30 40 55 45 55 5 0 50 -28 99 -61z
m-286 -692 c17 -5 31 -11 33 -12 2 -2 -14 -49 -36 -107 l-11 -26 -88 33 c-48
18 -100 38 -115 44 l-28 10 18 48 c11 27 22 56 25 65 6 16 13 15 89 -13 46
-17 97 -36 113 -42z m5871 5 l23 -63 -27 -10 c-15 -6 -67 -26 -115 -44 l-88
-33 -11 26 c-22 58 -38 105 -36 107 10 8 215 83 222 81 4 -1 19 -30 32 -64z
m-6126 -705 l95 -12 -3 -65 c-2 -36 -7 -68 -10 -71 -4 -3 -50 0 -102 7 -52 7
-105 13 -118 13 -22 1 -23 3 -16 64 4 34 9 65 11 70 5 9 25 8 143 -6z m6303 6
c2 -5 7 -35 11 -69 l7 -60 -118 -16 c-65 -8 -121 -12 -125 -9 -3 3 -8 35 -10
71 l-3 65 85 11 c108 14 148 16 153 7z m-6210 -813 c4 -35 4 -66 0 -70 -13
-11 -225 -32 -233 -23 -4 4 -11 36 -14 69 l-7 62 103 12 c57 6 108 13 113 15
23 8 30 -5 38 -65z m6127 50 c46 -6 88 -10 93 -10 9 0 -2 -121 -12 -133 -4 -4
-59 -1 -122 6 l-114 12 3 65 c2 36 6 68 8 72 3 4 17 5 32 3 15 -3 65 -10 112
-15z m-5951 -764 c12 -32 20 -60 19 -61 -8 -5 -214 -80 -222 -80 -4 0 -19 28
-32 63 l-23 63 22 9 c80 35 203 77 208 71 4 -3 16 -32 28 -65z m5831 5 c51
-19 52 -25 17 -101 l-22 -48 -110 41 c-60 22 -111 41 -113 42 -2 2 14 50 37
107 l10 27 68 -25 c37 -14 88 -34 113 -43z m-5460 -696 c0 -2 -45 -35 -99 -73
l-99 -70 -41 58 -41 59 101 70 102 70 38 -55 c22 -30 39 -57 39 -59z m5066 39
l94 -66 -37 -54 c-21 -29 -42 -54 -46 -54 -9 0 -197 129 -197 136 0 11 73 104
82 104 5 0 52 -30 104 -66z m-4622 -525 c25 -22 46 -44 46 -48 0 -13 -152
-182 -160 -179 -4 2 -29 22 -54 46 l-47 43 78 89 c43 49 81 89 84 90 3 0 27
-18 53 -41z m4126 -45 c41 -47 76 -89 76 -93 1 -3 -21 -26 -48 -51 l-50 -45
-55 60 c-29 33 -66 75 -81 94 l-26 34 48 43 c26 24 51 44 54 44 4 0 41 -39 82
-86z m-610 -446 c28 -54 49 -102 45 -108 -10 -17 -105 -61 -116 -55 -16 10
-112 209 -103 212 5 2 32 16 59 32 28 16 53 26 57 23 3 -4 29 -51 58 -104z
m-2917 76 c29 -15 53 -28 55 -29 3 -3 -95 -205 -104 -214 -6 -6 -103 41 -115
55 -8 10 3 40 43 114 29 55 57 100 61 100 4 0 31 -12 60 -26z m708 -264 c27
-8 36 -15 33 -28 -6 -27 -34 -143 -45 -184 l-9 -36 -58 14 c-31 8 -62 17 -69
19 -11 4 -5 31 38 199 11 42 12 42 110 16z m1488 -17 c44 -167 49 -194 38
-198 -7 -2 -38 -11 -70 -19 l-57 -14 -6 26 c-3 15 -16 69 -29 120 l-23 92 47
14 c76 24 89 21 100 -21z m-729 -188 l0 -125 -70 0 -70 0 0 125 0 125 70 0 70
0 0 -125z"/>
<path d="M3400 5513 c-61 -22 -142 -104 -163 -167 -37 -108 -13 -211 67 -292
114 -113 278 -113 392 0 113 114 113 278 0 392 -80 80 -189 104 -296 67z"/>
<path d="M2565 5291 c-264 -69 -297 -423 -50 -532 100 -45 231 -20 308 59 134
137 96 360 -75 448 -51 26 -136 38 -183 25z"/>
<path d="M4315 5291 c-130 -34 -218 -146 -219 -279 0 -34 5 -67 10 -72 7 -7
42 30 105 107 117 145 150 170 279 210 26 8 -33 32 -91 37 -30 3 -67 1 -84 -3z"/>
<path d="M4536 4888 c-64 -78 -113 -144 -111 -146 3 -3 26 3 52 13 92 36 160
124 178 233 4 23 4 42 1 42 -3 0 -57 -64 -120 -142z"/>
<path d="M1927 4649 c-88 -21 -155 -75 -198 -159 -33 -66 -32 -167 3 -235 138
-265 529 -177 531 119 1 175 -171 316 -336 275z"/>
<path d="M4957 4649 c-92 -22 -170 -88 -202 -173 -10 -25 -16 -48 -14 -50 4
-4 243 185 279 220 12 12 12 14 -5 13 -11 -1 -37 -5 -58 -10z"/>
<path d="M5257 4490 c-3 -8 -10 -31 -17 -51 -21 -72 -67 -126 -189 -224 -81
-66 -118 -102 -111 -109 5 -5 38 -10 72 -10 161 1 283 124 282 284 0 65 -27
142 -37 110z"/>
<path d="M1650 3763 c-61 -22 -142 -104 -163 -167 -63 -184 72 -376 263 -376
151 0 280 129 280 280 0 75 -27 139 -84 196 -80 80 -189 104 -296 67z"/>
<path d="M5150 3763 c-61 -22 -142 -104 -163 -167 -37 -108 -13 -211 67 -292
114 -113 278 -113 392 0 113 114 113 278 0 392 -80 80 -189 104 -296 67z"/>
<path d="M1927 2899 c-88 -21 -168 -87 -203 -166 -27 -61 -23 -167 8 -228 113
-216 411 -210 509 10 45 100 21 226 -58 307 -62 63 -174 98 -256 77z"/>
<path d="M4957 2899 c-132 -32 -221 -142 -220 -274 0 -155 123 -279 278 -278
251 0 374 307 193 480 -62 60 -172 92 -251 72z"/>
<path d="M2567 2259 c-266 -63 -301 -418 -52 -531 180 -81 389 57 388 257 0
175 -170 314 -336 274z"/>
<path d="M4323 2260 c-269 -55 -309 -418 -58 -532 180 -81 389 57 388 257 0
174 -162 309 -330 275z"/>
<path d="M3400 2013 c-61 -22 -142 -104 -163 -167 -63 -184 72 -376 263 -376
75 0 139 27 196 84 113 114 113 278 0 392 -80 80 -189 104 -296 67z"/>
</g>
</svg>
